<svg width="118" height="16" viewBox="0 0 118 16" fill="none" xmlns="http://www.w3.org/2000/svg">
<path fill-rule="evenodd" clip-rule="evenodd" d="M23.5793 2.72089L23.5566 2.74056L20.507 5.39591C21.6856 5.60233 22.6128 6.12648 23.2515 6.88755C23.9151 7.67826 24.2633 8.7196 24.2633 9.91316C24.2633 11.0967 23.988 12.0105 23.554 12.7146C23.1201 13.4184 22.5299 13.909 21.9054 14.25C20.6583 14.9311 19.2697 15.0186 18.6946 15.0186C18.2506 15.0186 16.7353 15.0483 15.3418 14.3794C14.6438 14.0443 13.9747 13.5333 13.4861 12.7544C12.9975 11.9754 12.6924 10.9331 12.7153 9.54076L12.7165 9.47586H15.9965V9.54183C15.9965 10.1606 16.132 10.8654 16.5182 11.4135C16.9019 11.958 17.5382 12.3555 18.5581 12.3555C19.6787 12.3555 20.2739 11.8959 20.5926 11.3736C20.9144 10.846 20.9598 10.2451 20.9598 9.95945C20.9598 9.49004 20.8695 8.94944 20.5535 8.52748C20.2402 8.1089 19.6962 7.79583 18.7642 7.79583H16.5987V5.33048L19.6358 2.75649H13.2189V0H23.5793V2.72089Z" fill="black"/>
<path fill-rule="evenodd" clip-rule="evenodd" d="M43.9629 2.16106C45.7891 2.16106 47.3934 2.65765 48.5419 3.70797C49.6915 4.75936 50.376 6.35799 50.376 8.54373C50.376 10.7296 49.6856 12.3395 48.5334 13.4024C47.3822 14.4642 45.778 14.9727 43.9629 14.9727C42.1478 14.9727 40.5435 14.4645 39.3923 13.4027C38.2401 12.34 37.5497 10.73 37.5497 8.54373C37.5497 6.2051 38.3381 4.60599 39.5397 3.59293C40.7394 2.5816 42.3429 2.16106 43.9629 2.16106ZM43.9629 4.66063C43.5789 4.66063 42.9136 4.7071 42.3437 5.20795C41.775 5.70765 41.287 6.67276 41.287 8.54288C41.287 9.29588 41.3558 10.282 41.7262 11.0779C41.9108 11.4748 42.1696 11.8223 42.5304 12.0708C42.8909 12.319 43.3574 12.4713 43.9629 12.4713C44.5741 12.4713 45.0435 12.3176 45.405 12.0676C45.7669 11.8174 46.0249 11.4677 46.2082 11.0694C46.5757 10.2705 46.6387 9.28437 46.6387 8.54288C46.6387 6.67202 46.1673 5.70704 45.6072 5.20763C45.046 4.7073 44.3813 4.66063 43.9629 4.66063Z" fill="black"/>
<path fill-rule="evenodd" clip-rule="evenodd" d="M60.7249 2.16106C62.7148 2.16106 64.0404 2.78731 64.8912 3.69386C65.7407 4.59898 66.1099 5.77597 66.2023 6.86584L66.2082 6.93748H62.7464L62.7389 6.88028C62.6147 5.9378 62.3171 5.38701 61.9375 5.07034C61.5574 4.75331 61.084 4.66159 60.5883 4.66159C60.2166 4.66159 59.5737 4.71343 59.0235 5.19137C58.4749 5.66795 58.0044 6.58078 58.0044 8.33406C58.0045 10.2866 58.4759 11.3171 59.0211 11.8603C59.5658 12.403 60.1962 12.4711 60.5423 12.4712C61.4312 12.4711 61.9826 12.0548 62.3144 11.5403C62.6485 11.0222 62.7606 10.4028 62.7606 10.0063V9.94032H66.3201L66.3157 10.0105C66.2579 10.9383 65.929 12.1787 65.0521 13.1882C64.1734 14.1998 62.7503 14.9727 60.5187 14.9727C58.6113 14.9727 57.0462 14.4174 55.9578 13.337C54.869 12.2564 54.2654 10.6585 54.2654 8.59003C54.2654 7.18825 54.5754 5.58094 55.5411 4.32276C56.509 3.06162 58.1282 2.16107 60.7249 2.16106Z" fill="black"/>
<path fill-rule="evenodd" clip-rule="evenodd" d="M117.018 14.5314H113.417V13.1681C112.86 13.7818 112.36 14.2284 111.821 14.5236C111.259 14.8315 110.66 14.9727 109.92 14.9727C108.268 14.9727 106.931 14.2965 106.008 13.1487C105.086 12.0021 104.58 10.3896 104.58 8.52021C104.58 6.6506 105.092 5.06099 106.026 3.93764C106.961 2.81311 108.316 2.16106 109.989 2.16106C111.115 2.16107 112.579 2.69561 113.418 3.66959V0.0286545H117.018V14.5314ZM110.949 4.66159C110.004 4.66159 109.35 5.12853 108.929 5.8484C108.506 6.57177 108.318 7.55139 108.318 8.56651C108.318 9.80052 108.579 10.7785 109.038 11.446C109.494 12.111 110.148 12.4713 110.949 12.4713C111.628 12.4713 112.288 12.2171 112.779 11.6073C113.272 10.9961 113.601 10.0202 113.601 8.56651C113.601 7.28482 113.357 6.30748 112.905 5.65241C112.456 5.00074 111.797 4.66159 110.949 4.66159Z" fill="black"/>
<path fill-rule="evenodd" clip-rule="evenodd" d="M83.1648 2.16085C84.991 2.16085 86.5954 2.65743 87.7438 3.70776C88.8934 4.75915 89.5779 6.35778 89.5779 8.54352C89.5779 10.7294 88.8875 12.3393 87.7353 13.4022C86.5841 14.464 84.9799 14.9725 83.1648 14.9725C81.3497 14.9725 79.7455 14.4642 78.5943 13.4025C77.442 12.3398 76.7517 10.7298 76.7517 8.54352C76.7517 6.20489 77.54 4.60578 78.7417 3.59271C79.9413 2.58138 81.5448 2.16085 83.1648 2.16085ZM83.1648 4.66041C82.7809 4.66041 82.1156 4.70689 81.5456 5.20773C80.977 5.70743 80.489 6.67255 80.489 8.54266C80.489 9.29566 80.5578 10.2818 80.9281 11.0777C81.1128 11.4746 81.3715 11.8221 81.7323 12.0706C82.0928 12.3188 82.5593 12.4711 83.1648 12.4711C83.776 12.4711 84.2454 12.3173 84.6069 12.0674C84.9688 11.8171 85.2268 11.4675 85.4101 11.0692C85.7776 10.2703 85.8406 9.28416 85.8406 8.54266C85.8406 6.67181 85.3692 5.70682 84.8091 5.20741C84.248 4.70709 83.5832 4.66041 83.1648 4.66041Z" fill="black"/>
<path d="M94.9408 9.49467C94.9408 10.6526 95.1064 11.3957 95.4197 11.8486C95.7287 12.2953 96.1899 12.4709 96.8167 12.4709C97.3525 12.4709 97.76 12.3249 98.0713 12.0961C98.3831 11.8669 98.6024 11.5514 98.7561 11.2062C99.0642 10.5141 99.1042 9.71302 99.1042 9.28586V9.2586L99.1051 9.25763V2.60093H102.706V14.5302H99.1051V13.2186C98.4991 13.8834 97.9001 14.3164 97.2886 14.5857C96.639 14.8717 95.9789 14.9713 95.2874 14.9713C94.341 14.9713 93.6176 14.7541 93.066 14.4021C92.5144 14.0501 92.1388 13.5659 91.8834 13.039C91.3737 11.9877 91.3401 10.7605 91.3401 10.052V2.60093H94.9408V9.49467Z" fill="black"/>
<path fill-rule="evenodd" clip-rule="evenodd" d="M3.60069 3.77148C5.0699 2.13767 6.99526 2.16106 7.46391 2.16106C8.41981 2.16119 9.39843 2.37191 10.1376 3.09682C10.8772 3.82225 11.3649 5.05049 11.3649 7.05755V14.5314H7.76409V7.63769C7.76409 7.09222 7.7351 6.34377 7.48095 5.73314C7.35435 5.42898 7.17301 5.16193 6.91413 4.9708C6.6558 4.78008 6.31562 4.66149 5.86502 4.66148C5.3082 4.66148 4.89176 4.831 4.57851 5.08916C4.26422 5.34818 4.04995 5.69965 3.90423 6.06876C3.61228 6.80829 3.60069 7.60462 3.60069 7.82373V14.5314H0V0.00128304H3.60069V3.77148Z" fill="black"/>
<path d="M29.6492 14.5314H26.0485V0.00128304H29.6492V14.5314Z" fill="black"/>
<path d="M35.6734 14.5314H32.0727V0.00128304H35.6734V14.5314Z" fill="black"/>
<path d="M73.5058 11.7749H76.5197V14.5314H66.9522V11.7749H69.9661V2.75692H66.9522V0.00128304H73.5058V11.7749Z" fill="black"/>
</svg>
