<svg width="118" height="16" viewBox="0 0 118 16" fill="none" xmlns="http://www.w3.org/2000/svg">
<g clip-path="url(#clip0_1114_3200)">
<path fill-rule="evenodd" clip-rule="evenodd" d="M23.5793 2.72089L23.5566 2.74056L20.507 5.39591C21.6856 5.60233 22.6128 6.12648 23.2515 6.88755C23.9151 7.67826 24.2633 8.7196 24.2633 9.91316C24.2633 11.0967 23.988 12.0105 23.554 12.7146C23.1201 13.4184 22.5299 13.909 21.9054 14.25C20.6583 14.9311 19.2697 15.0186 18.6946 15.0186C18.2506 15.0186 16.7353 15.0483 15.3418 14.3794C14.6438 14.0443 13.9747 13.5333 13.4861 12.7544C12.9975 11.9754 12.6924 10.9331 12.7153 9.54076L12.7165 9.47586H15.9965V9.54183C15.9965 10.1606 16.132 10.8654 16.5182 11.4135C16.9019 11.958 17.5382 12.3555 18.5581 12.3555C19.6787 12.3555 20.2739 11.8959 20.5926 11.3736C20.9144 10.846 20.9598 10.2451 20.9598 9.95945C20.9598 9.49004 20.8695 8.94944 20.5535 8.52748C20.2402 8.1089 19.6962 7.79583 18.7642 7.79583H16.5987V5.33048L19.6358 2.75649H13.2189V0H23.5793V2.72089Z" fill="white"/>
<path fill-rule="evenodd" clip-rule="evenodd" d="M43.9629 2.16113C45.7891 2.16113 47.3934 2.65772 48.5419 3.70804C49.6915 4.75943 50.376 6.35806 50.376 8.5438C50.376 10.7297 49.6856 12.3396 48.5334 13.4025C47.3822 14.4643 45.778 14.9728 43.9629 14.9728C42.1478 14.9728 40.5435 14.4646 39.3923 13.4028C38.2401 12.3401 37.5497 10.7301 37.5497 8.5438C37.5497 6.20517 38.3381 4.60606 39.5397 3.593C40.7394 2.58167 42.3429 2.16113 43.9629 2.16113ZM43.9629 4.6607C43.5789 4.6607 42.9136 4.70717 42.3437 5.20802C41.775 5.70772 41.287 6.67283 41.287 8.54295C41.287 9.29595 41.3558 10.2821 41.7262 11.078C41.9108 11.4749 42.1696 11.8224 42.5304 12.0709C42.8909 12.3191 43.3574 12.4714 43.9629 12.4714C44.5741 12.4714 45.0435 12.3177 45.405 12.0677C45.7669 11.8175 46.0249 11.4678 46.2082 11.0695C46.5757 10.2706 46.6387 9.28444 46.6387 8.54295C46.6387 6.67209 46.1673 5.70711 45.6072 5.2077C45.046 4.70737 44.3813 4.6607 43.9629 4.6607Z" fill="white"/>
<path fill-rule="evenodd" clip-rule="evenodd" d="M60.7249 2.16113C62.7148 2.16113 64.0404 2.78738 64.8912 3.69393C65.7407 4.59905 66.1099 5.77604 66.2023 6.86591L66.2082 6.93755H62.7464L62.7389 6.88035C62.6147 5.93787 62.3171 5.38708 61.9375 5.07041C61.5574 4.75338 61.084 4.66166 60.5883 4.66166C60.2166 4.66166 59.5737 4.7135 59.0235 5.19144C58.4749 5.66802 58.0044 6.58085 58.0044 8.33413C58.0045 10.2867 58.4759 11.3172 59.0211 11.8604C59.5658 12.4031 60.1962 12.4712 60.5423 12.4713C61.4312 12.4712 61.9826 12.0549 62.3144 11.5404C62.6485 11.0223 62.7606 10.4029 62.7606 10.0064V9.94039H66.3201L66.3157 10.0106C66.2579 10.9384 65.929 12.1788 65.0521 13.1883C64.1734 14.1999 62.7503 14.9728 60.5187 14.9728C58.6113 14.9728 57.0462 14.4175 55.9578 13.3371C54.869 12.2565 54.2654 10.6586 54.2654 8.5901C54.2654 7.18832 54.5754 5.58101 55.5411 4.32283C56.509 3.06169 58.1282 2.16114 60.7249 2.16113Z" fill="white"/>
<path fill-rule="evenodd" clip-rule="evenodd" d="M117.018 14.5316H113.417V13.1683C112.86 13.782 112.36 14.2286 111.821 14.5238C111.259 14.8317 110.66 14.9729 109.92 14.9729C108.268 14.9729 106.931 14.2967 106.008 13.1489C105.086 12.0023 104.58 10.3898 104.58 8.52036C104.58 6.65075 105.092 5.06114 106.026 3.93779C106.961 2.81326 108.316 2.16121 109.989 2.16121C111.115 2.16122 112.579 2.69576 113.418 3.66974V0.0288086H117.018V14.5316ZM110.949 4.66174C110.004 4.66174 109.35 5.12868 108.929 5.84855C108.506 6.57192 108.318 7.55154 108.318 8.56666C108.318 9.80067 108.579 10.7787 109.038 11.4462C109.494 12.1112 110.148 12.4715 110.949 12.4715C111.628 12.4715 112.288 12.2173 112.779 11.6075C113.272 10.9963 113.601 10.0204 113.601 8.56666C113.601 7.28497 113.357 6.30763 112.905 5.65256C112.456 5.00089 111.797 4.66174 110.949 4.66174Z" fill="white"/>
<path fill-rule="evenodd" clip-rule="evenodd" d="M83.1648 2.16064C84.991 2.16064 86.5954 2.65722 87.7438 3.70755C88.8934 4.75894 89.5779 6.35757 89.5779 8.54331C89.5779 10.7292 88.8875 12.3391 87.7353 13.402C86.5841 14.4638 84.9799 14.9723 83.1648 14.9723C81.3497 14.9723 79.7455 14.464 78.5943 13.4023C77.442 12.3396 76.7517 10.7296 76.7517 8.54331C76.7517 6.20468 77.54 4.60557 78.7417 3.5925C79.9413 2.58117 81.5448 2.16064 83.1648 2.16064ZM83.1648 4.6602C82.7809 4.6602 82.1156 4.70668 81.5456 5.20752C80.977 5.70722 80.489 6.67234 80.489 8.54245C80.489 9.29545 80.5578 10.2816 80.9281 11.0775C81.1128 11.4744 81.3715 11.8219 81.7323 12.0704C82.0928 12.3186 82.5593 12.4709 83.1648 12.4709C83.776 12.4709 84.2454 12.3171 84.6069 12.0672C84.9688 11.8169 85.2268 11.4673 85.4101 11.069C85.7776 10.2701 85.8406 9.28395 85.8406 8.54245C85.8406 6.6716 85.3692 5.70661 84.8091 5.2072C84.248 4.70688 83.5832 4.6602 83.1648 4.6602Z" fill="white"/>
<path d="M94.9408 9.49481C94.9408 10.6527 95.1064 11.3958 95.4197 11.8487C95.7287 12.2954 96.1899 12.471 96.8167 12.471C97.3525 12.471 97.76 12.325 98.0713 12.0962C98.3831 11.867 98.6024 11.5515 98.7561 11.2063C99.0642 10.5142 99.1042 9.71316 99.1042 9.286V9.25874L99.1051 9.25777V2.60107H102.706V14.5303H99.1051V13.2187C98.4991 13.8835 97.9001 14.3165 97.2886 14.5858C96.639 14.8718 95.9789 14.9714 95.2874 14.9714C94.341 14.9714 93.6176 14.7542 93.066 14.4022C92.5144 14.0502 92.1388 13.566 91.8834 13.0391C91.3737 11.9878 91.3401 10.7606 91.3401 10.0521V2.60107H94.9408V9.49481Z" fill="white"/>
<path fill-rule="evenodd" clip-rule="evenodd" d="M3.60069 3.77166C5.0699 2.13785 6.99526 2.16124 7.46391 2.16124C8.41981 2.16137 9.39843 2.37209 10.1376 3.097C10.8772 3.82243 11.3649 5.05067 11.3649 7.05773V14.5316H7.76409V7.63787C7.76409 7.0924 7.7351 6.34395 7.48095 5.73332C7.35435 5.42916 7.17301 5.16211 6.91413 4.97098C6.6558 4.78026 6.31562 4.66167 5.86502 4.66166C5.3082 4.66166 4.89176 4.83118 4.57851 5.08934C4.26422 5.34836 4.04995 5.69983 3.90423 6.06894C3.61228 6.80847 3.60069 7.6048 3.60069 7.82391V14.5316H0V0.00146484H3.60069V3.77166Z" fill="white"/>
<path d="M29.6492 14.5316H26.0485V0.00146484H29.6492V14.5316Z" fill="white"/>
<path d="M35.6735 14.5316H32.0728V0.00146484H35.6735V14.5316Z" fill="white"/>
<path d="M73.5057 11.7751H76.5196V14.5316H66.9521V11.7751H69.966V2.7571H66.9521V0.00146484H73.5057V11.7751Z" fill="white"/>
</g>
<defs>
<clipPath id="clip0_1114_3200">
<rect width="118" height="16" fill="white"/>
</clipPath>
</defs>
</svg>
